<?xml version="1.0" encoding="UTF-8" standalone="no"?>
<svg width="512" height="512" viewBox="0 0 512 512" version="1.1" id="svg1" xml:space="preserve" xmlns="http://www.w3.org/2000/svg"><defs
   id="defs1" />
    <path
        d="M 203,309 V 203 q 0,-4.505 3.0475,-7.5525 3.0475,-3.0475 7.5525,-3.0475 4.505,0 7.5525,3.0475 Q 224.2,198.495 224.2,203 v 106 q 0,4.505 -3.0475,7.5525 -3.0475,3.0475 -7.5525,3.0475 -4.505,0 -7.5525,-3.0475 Q 203,313.505 203,309 Z m 42.4,42.4 V 160.6 q 0,-4.505 3.0475,-7.5525 Q 251.495,150 256,150 q 4.505,0 7.5525,3.0475 3.0475,3.0475 3.0475,7.5525 v 190.8 q 0,4.505 -3.0475,7.5525 Q 260.505,362 256,362 q -4.505,0 -7.5525,-3.0475 Q 245.4,355.905 245.4,351.4 Z m -84.8,-84.8 v -21.2 q 0,-4.505 3.0475,-7.5525 3.0475,-3.0475 7.5525,-3.0475 4.505,0 7.5525,3.0475 3.0475,3.0475 3.0475,7.5525 v 21.2 q 0,4.505 -3.0475,7.5525 -3.0475,3.0475 -7.5525,3.0475 -4.505,0 -7.5525,-3.0475 Q 160.6,271.105 160.6,266.6 Z M 287.8,309 V 203 q 0,-4.505 3.0475,-7.5525 3.0475,-3.0475 7.5525,-3.0475 4.505,0 7.5525,3.0475 Q 309,198.495 309,203 v 106 q 0,4.505 -3.0475,7.5525 -3.0475,3.0475 -7.5525,3.0475 -4.505,0 -7.5525,-3.0475 Q 287.8,313.505 287.8,309 Z m 42.4,-42.4 v -21.2 q 0,-4.505 3.0475,-7.5525 3.0475,-3.0475 7.5525,-3.0475 4.505,0 7.5525,3.0475 3.0475,3.0475 3.0475,7.5525 v 21.2 q 0,4.505 -3.0475,7.5525 -3.0475,3.0475 -7.5525,3.0475 -4.505,0 -7.5525,-3.0475 Q 330.2,271.105 330.2,266.6 Z"
        id="path1" style="fill:#ffffff;stroke-width:0.265" /></svg>
